<?xml version="1.0" standalone="yes"?>
<svg xmlns="http://www.w3.org/2000/svg" width="307" height="198">
<path style="fill:#fefdfd; stroke:none;" d="M0 0L0 198L307 198L307 0L0 0z"/>
<path style="fill:#fc4d29; stroke:none;" d="M175 109L175 112C161.716 115.79 148.075 128.082 134 127.806C125.153 127.631 116.646 121.603 108.715 118.321C99.1532 114.364 87.3582 111.888 77 112.019C70.7642 112.097 61.6036 112.477 57.3441 117.708C48.3643 128.737 65.7481 141.621 75 143.869C79.9806 145.079 85.0627 145.257 90 146.721C97.6335 148.983 104.879 152.668 113 152.871C123.402 153.131 133.708 146.294 143.996 150.482C152.284 153.857 159.656 161.247 167.004 166.294C183.596 177.691 198.887 186.831 219 190.385C224.188 191.302 233.211 192.427 237.427 188.436C243.817 182.388 238.672 170.834 231.985 167.573C228.046 165.651 224.134 166.48 220 167L220 175C206.889 174.964 193.577 169.888 182.464 163.056C177.769 160.169 173.717 156.214 168.961 153.51C164.277 150.848 150.812 143.271 159.229 137.074C165.321 132.589 174.021 130.189 181 127.4C185.719 125.514 190.801 123.119 196 123.377C220.712 124.6 242.533 140.898 267.999 137.714C285.562 135.518 306.248 120.65 294.911 101.001C289.198 91.0979 275.548 88.0516 265 88.0008C249.81 87.9275 234.646 91.0155 220 94.8843C211.421 97.1503 201.006 101.844 192 100.542C185.183 99.5575 179.583 95.032 174 91.3341C162.564 83.7594 149.755 72.9063 137 68C141.171 60.2447 157.173 59.0331 165 55.8557C180.925 49.3911 197.682 45.5947 214 40.3295C228.252 35.7308 241.975 29.2419 257 27.2894C260.808 26.7945 265.613 26.382 268.96 28.6034C274.069 31.9951 275.51 38.6685 280.669 42.0216C284.454 44.4817 289.061 44.0627 289.851 38.9807C291.056 31.2299 284.651 26.0148 278.576 22.5548C264.799 14.708 251.074 14.9774 236 19.439C210.066 27.1147 184.637 36.7876 159 45.3333C152.364 47.5452 145.588 49.35 139 51.6921C134.203 53.3976 129.207 55.8616 124 55.8164C115.864 55.7457 107.677 49.1726 100 46.6698C82.423 40.9396 64.5194 37 46 37C36.4275 37 25.8494 37.7837 17.4282 42.973C8.74065 48.3264 9.90288 58.8426 15.7539 65.9198C20.2239 71.3266 26.7121 74.2297 33 76.9815C41.5766 80.7348 49.9788 79.9136 59 79.0748C76.674 77.4315 94.2872 71.0794 112 71.0008C123.295 70.9507 129.009 75.8069 137.715 82.3056C149.4 91.0283 161.529 103.305 175 109z"/>
<path style="fill:#fefdfd; stroke:none;" d="M35 46.4637C32.1057 46.9751 28.8488 47.611 26.1705 48.8503C20.0785 51.6693 18.2024 58.4527 23.0586 63.4429C26.1208 66.5895 30.8794 68.0986 35 69.2539C50.9614 73.7289 69.0217 70.5271 85 67.75C90.5644 66.7829 98.7158 66.1685 103.677 63.4398C106.66 61.7994 104.98 59.1074 102.866 57.6343C99.0088 54.9465 94.5229 53.3378 90 52.2315C72.0658 47.8447 53.6903 43.1612 35 46.4637M259 98.4282C246.448 100.226 234.224 103.027 222 106.424C219.21 107.2 211.75 107.939 210.752 111.213C209.049 116.797 220.726 118.496 224 119.21C228.269 120.14 231.953 122.098 236.09 123.309C246.779 126.441 259.922 128.154 271 126.711C279.981 125.541 298.745 115.869 288.486 104.39C282.235 97.3962 267.522 97.2079 259 98.4282M117 135C115.53 129.889 111.89 128.204 107 126.721C98.6237 124.181 89.6276 122.373 81 120.921C76.429 120.151 71.4299 119.468 67.044 121.514C62.4303 123.666 60.4558 129.834 65.1481 133.066C69.4079 135.999 76.0272 136.317 81 137C86.0515 137.694 90.8991 138.008 96 138C103.125 137.989 110.11 136.783 117 135z"/>
</svg>
