<svg width="1284" height="2778" viewBox="0 0 1284 2778" fill="none" xmlns="http://www.w3.org/2000/svg">
<rect width="1284" height="2778" fill="#3F48CC"/>
<g clip-path="url(#clip0_3_2)">
<path d="M392 1228V1550.48H892V1228H392Z" fill="#3F48CC"/>
<path d="M677.016 1405.52V1410.41C655.381 1416.58 633.164 1436.6 610.241 1436.15C595.832 1435.87 581.977 1426.05 569.06 1420.71C553.487 1414.26 534.277 1410.23 517.407 1410.44C507.251 1410.57 492.332 1411.19 485.394 1419.71C470.769 1437.67 499.082 1458.65 514.15 1462.31C522.262 1464.29 530.539 1464.57 538.58 1466.96C551.012 1470.64 562.813 1476.64 576.039 1476.98C592.98 1477.4 609.765 1466.26 626.521 1473.08C640.02 1478.58 652.026 1490.62 663.993 1498.84C691.016 1517.4 715.92 1532.28 748.678 1538.07C757.127 1539.57 771.822 1541.4 778.689 1534.9C789.096 1525.05 780.717 1506.23 769.826 1500.92C763.41 1497.79 757.039 1499.14 750.306 1499.99V1513.02C728.953 1512.96 707.272 1504.69 689.173 1493.56C681.526 1488.86 674.927 1482.42 667.181 1478.02C659.552 1473.68 637.622 1461.34 651.331 1451.25C661.252 1443.94 675.422 1440.03 686.788 1435.49C694.474 1432.42 702.751 1428.52 711.218 1428.94C751.466 1430.93 787.005 1457.48 828.48 1452.29C857.085 1448.71 890.775 1424.5 872.311 1392.5C863.007 1376.37 840.775 1371.41 823.596 1371.32C798.857 1371.2 774.16 1376.23 750.306 1382.53C736.334 1386.23 719.371 1393.87 704.704 1391.75C693.601 1390.15 684.48 1382.78 675.388 1376.75C656.762 1364.42 635.901 1346.74 615.127 1338.75C621.92 1326.12 647.982 1324.15 660.73 1318.97C686.666 1308.44 713.958 1302.26 740.534 1293.68C763.746 1286.19 786.096 1275.63 810.567 1272.45C816.769 1271.64 824.594 1270.97 830.046 1274.59C838.366 1280.11 840.713 1290.98 849.116 1296.44C855.28 1300.45 862.783 1299.76 864.07 1291.49C866.033 1278.86 855.601 1270.37 845.707 1264.73C823.269 1251.95 800.915 1252.39 776.365 1259.66C734.127 1272.16 692.712 1287.91 650.958 1301.83C640.15 1305.44 629.114 1308.37 618.384 1312.19C610.572 1314.97 602.435 1318.98 593.954 1318.91C580.704 1318.79 567.37 1308.09 554.866 1304.01C526.239 1294.68 497.08 1288.26 466.919 1288.26C451.328 1288.26 434.1 1289.54 420.385 1297.99C406.236 1306.71 408.128 1323.83 417.658 1335.36C424.938 1344.17 435.505 1348.9 445.746 1353.38C459.714 1359.49 473.399 1358.15 488.091 1356.79C516.876 1354.11 545.562 1343.76 574.41 1343.64C592.806 1343.55 602.112 1351.46 616.292 1362.05C635.322 1376.25 655.077 1396.25 677.016 1405.52Z" fill="#FC4D29"/>
<path d="M449.003 1303.67C444.289 1304.51 438.985 1305.54 434.623 1307.56C424.701 1312.15 421.646 1323.2 429.555 1331.33C434.542 1336.45 442.292 1338.91 449.003 1340.79C474.999 1348.08 504.413 1342.86 530.436 1338.34C539.499 1336.77 552.775 1335.77 560.855 1331.32C565.713 1328.65 562.977 1324.27 559.534 1321.87C553.252 1317.49 545.946 1314.87 538.58 1313.07C509.371 1305.92 479.443 1298.3 449.003 1303.67ZM813.824 1388.31C793.381 1391.23 773.472 1395.8 753.564 1401.33C749.02 1402.59 736.87 1403.8 735.244 1409.13C732.471 1418.22 751.489 1420.99 756.821 1422.15C763.774 1423.67 769.774 1426.86 776.511 1428.83C793.92 1433.93 815.326 1436.72 833.368 1434.37C847.995 1432.46 878.555 1416.71 861.847 1398.02C851.666 1386.63 827.704 1386.32 813.824 1388.31ZM582.554 1447.87C580.16 1439.55 574.231 1436.8 566.267 1434.39C552.625 1430.25 537.973 1427.3 523.922 1424.94C516.477 1423.69 508.335 1422.57 501.192 1425.91C493.678 1429.41 490.462 1439.46 498.104 1444.72C505.042 1449.5 515.823 1450.01 523.922 1451.13C532.149 1452.26 540.044 1452.77 548.352 1452.76C559.956 1452.74 571.332 1450.77 582.554 1447.87Z" fill="#3F48CC"/>
</g>
<defs>
<clipPath id="clip0_3_2">
<rect width="500" height="322.476" fill="white" transform="translate(392 1228)"/>
</clipPath>
</defs>
</svg>
